<svg width="16" height="16" viewBox="0 0 16 16" fill="none" xmlns="http://www.w3.org/2000/svg">
<path d="M7.70001 14.7002C11.566 14.7002 14.7 11.5662 14.7 7.7002C14.7 3.8342 11.566 0.700195 7.70001 0.700195C3.83402 0.700195 0.700012 3.8342 0.700012 7.7002C0.700012 11.5662 3.83402 14.7002 7.70001 14.7002Z" stroke="black" stroke-width="1.4" stroke-linecap="round" stroke-linejoin="round"/>
<path d="M7.70006 11.9C10.0197 11.9 11.9001 10.0196 11.9001 7.7C11.9001 5.3804 10.0197 3.5 7.70006 3.5C5.38047 3.5 3.50006 5.3804 3.50006 7.7C3.50006 10.0196 5.38047 11.9 7.70006 11.9Z" stroke="black" stroke-width="1.4" stroke-linecap="round" stroke-linejoin="round"/>
<path d="M7.69987 9.0998C8.47306 9.0998 9.09987 8.473 9.09987 7.6998C9.09987 6.92661 8.47306 6.2998 7.69987 6.2998C6.92667 6.2998 6.29987 6.92661 6.29987 7.6998C6.29987 8.473 6.92667 9.0998 7.69987 9.0998Z" stroke="black" stroke-width="1.4" stroke-linecap="round" stroke-linejoin="round"/>
</svg>
