<svg width="84" height="42" viewBox="0 0 84 42" fill="none" xmlns="http://www.w3.org/2000/svg">
<path d="M29.3506 22.5311L26.7478 21.7931C25.0661 21.2881 23.9049 19.6954 23.9049 17.9861C23.9049 16.2769 25.7468 13.985 28.0692 13.985H33.2346V15.7719H29.6308C28.9501 15.7719 28.3095 16.2769 28.3095 17.0538C28.3095 17.8307 28.6298 18.025 29.1503 18.1804L31.673 18.9961C33.4348 19.5011 34.3558 21.2492 34.3558 23.1915C34.3558 25.1338 32.2736 27.6588 29.751 27.6588H24.3053V25.6388H28.9902C29.6709 25.6388 30.4317 24.9784 30.4317 24.085C30.4317 23.1915 30.0313 22.8031 29.3506 22.6088M5.36558 22.5311L2.76287 21.7931C1.16121 21.2881 0 19.6954 0 17.9861C0 16.2769 1.84191 13.985 4.16433 13.985H9.32971V15.7719H5.72595C5.04525 15.7719 4.40458 16.2769 4.40458 17.0538C4.40458 17.8307 4.72492 18.025 5.24546 18.1804L7.76808 18.9961C9.44983 19.5011 10.3708 21.2492 10.3708 23.1915C10.3708 25.1338 8.36871 27.6588 5.84609 27.6588H0.400417V25.6388H5.08529C5.76599 25.6388 6.52679 24.9784 6.52679 24.085C6.52679 23.1915 6.08633 22.8031 5.36558 22.6088M17.298 28.0473C14.1347 28.0473 11.6922 25.8719 11.6922 23.1915V14.0238H15.9366V23.58C15.9366 24.7842 17.0177 25.7554 18.3791 25.7554C19.7405 25.7554 20.8617 24.7842 20.8617 23.58V14.0238H22.8638V23.1915C22.8638 25.8719 20.4213 28.0473 17.3381 28.0473" fill="#005BAA"/>
<path d="M46.3283 13.9457C48.4105 14.1788 50.813 14.4119 53.3356 14.6061H53.6159L67.3102 27.8915H83.5271V13.9069H46.3684L46.3283 13.9457Z" fill="#005BAA"/>
<path d="M61.384 30.4942C58.9014 30.4942 56.0585 30.3388 53.2956 30.1057C53.8562 36.3211 54.6971 41.8761 54.6971 41.8761H69.1121C69.1121 41.8761 68.2712 36.2823 67.7106 30.028C65.2681 30.3776 63.1459 30.4553 61.384 30.4553" fill="#005BAA"/>
<path d="M53.2556 15.3831C46.5286 14.8392 40.2821 13.9846 40.2821 13.9846V27.9692C40.2821 27.9692 52.735 29.795 61.384 29.795C70.033 29.795 65.3081 29.7173 67.6706 29.3676L53.2556 15.3831Z" fill="#005BAA"/>
<path d="M69.1121 0H54.6971V13.2465H69.1121V0Z" fill="#005BAA"/>
<path d="M68.0309 28.6684L68.3513 28.9792V29.2511C68.3913 29.4842 68.4314 29.7173 68.4314 29.9503C68.6316 32.1257 68.8318 34.2234 69.072 36.0103V28.6684H68.0309Z" fill="#005BAA"/>
</svg>
