<svg width="169" height="47" viewBox="0 0 169 47" fill="none" xmlns="http://www.w3.org/2000/svg">
<path d="M66.2687 18.3349H51.6936C51.3332 18.3349 51.133 18.5291 51.133 18.8787V45.4883C51.133 45.8379 51.3332 46.0321 51.6936 46.0321H53.7357C54.0961 46.0321 54.2963 45.8379 54.2963 45.4883V33.3683H62.3446C62.705 33.3683 62.9052 33.1741 62.9052 32.8245V31.1929C62.9052 30.8433 62.705 30.6491 62.3446 30.6491H54.2963V21.0152H66.2687C66.6291 21.0152 66.8293 20.821 66.8293 20.4714V18.8399C66.8293 18.4903 66.6291 18.296 66.2687 18.296V18.3349Z" fill="#191915"/>
<path d="M68.6312 18.3349H70.6733C70.9937 18.3349 71.2339 18.5679 71.2339 18.8787V45.4883C71.2339 45.7991 70.9937 46.0321 70.6733 46.0321H68.6312C68.3109 46.0321 68.0706 45.7991 68.0706 45.4883V18.8399C68.0706 18.5291 68.3109 18.296 68.6312 18.296V18.3349Z" fill="#191915"/>
<path d="M87.5309 19.2672C86.2896 18.6068 84.2875 18.2572 82.6458 18.2572C81.0041 18.2572 79.2823 18.6068 78.041 19.2672C76.7997 19.9276 75.7987 20.8987 75.1179 22.1029C74.4372 23.3072 74.0769 24.7445 74.0769 26.2983V38.0298C74.0769 39.5837 74.4372 41.021 75.1179 42.2252C75.7987 43.4294 76.7997 44.4006 78.041 45.061C79.2823 45.7214 81.0041 46.071 82.6458 46.071C84.2875 46.071 86.2495 45.7214 87.5309 45.061C88.7722 44.4006 89.7732 43.4294 90.4939 42.2252C91.2147 41.021 91.535 39.6225 91.535 38.0298V26.2983C91.535 24.7445 91.1747 23.3072 90.4939 22.1029C89.7732 20.8987 88.8122 19.9276 87.5309 19.2672ZM88.4118 26.2206V38.1464C88.4118 39.7002 87.9313 40.9821 86.9703 41.9145C86.0093 42.8468 84.2474 43.3518 82.6458 43.3518C81.0441 43.3518 79.5626 42.8856 78.6416 41.9145C77.6806 40.9821 77.2001 39.7002 77.2001 38.1464V26.2206C77.2001 24.6279 77.6806 23.346 78.6416 22.3749C79.6026 21.4037 81.1242 20.9376 82.6458 20.9376C84.1674 20.9376 86.0093 21.4426 86.9703 22.3749C87.9313 23.346 88.4118 24.6279 88.4118 26.2206Z" fill="#191915"/>
<path d="M102.587 18.2572C100.144 18.2572 97.8616 18.9564 96.3801 20.3549C94.8585 21.7533 94.0977 23.6568 94.0977 25.9876V38.2629C94.0977 40.5937 94.8585 42.4971 96.3801 43.8956C97.8616 45.2941 100.624 46.0321 103.107 46.0321C105.59 46.0321 107.592 45.3329 109.113 43.9345C110.635 42.536 111.396 40.6325 111.396 38.3406V38.0687C111.396 37.7191 111.196 37.5248 110.875 37.5248L108.833 37.4083C108.473 37.4083 108.272 37.6025 108.272 37.9133V38.4571C108.272 39.8945 107.792 41.0987 106.871 41.9921C105.95 42.8856 104.669 43.3518 103.147 43.3518C101.626 43.3518 99.6235 42.8856 98.7025 42.031C97.7815 41.1375 97.301 39.9333 97.301 38.4571V25.8322C97.301 24.356 97.7815 23.1518 98.7025 22.2583C99.6235 21.3649 101.105 20.9376 102.627 20.9376C104.148 20.9376 105.91 21.4037 106.831 22.2972C107.752 23.1906 108.232 24.3949 108.232 25.8322V26.376C108.232 26.6868 108.433 26.881 108.793 26.881L110.835 26.8033C111.195 26.8033 111.396 26.6091 111.396 26.2595V25.9099C111.396 23.6179 110.635 21.7145 109.113 20.316C107.592 18.9176 105.109 18.2183 102.627 18.2183L102.587 18.2572Z" fill="#191915"/>
<path d="M126.451 33.3295C127.973 32.9022 129.214 32.0475 130.135 30.8045C131.016 29.5614 131.497 27.7745 131.497 25.9876C131.497 24.2006 131.176 23.1518 130.576 21.9864C129.975 20.821 129.094 19.9276 128.013 19.306C126.932 18.6845 125.651 18.3737 124.249 18.3737H114.759C114.399 18.3737 114.199 18.5679 114.199 18.9176V45.5271C114.199 45.8767 114.399 46.071 114.759 46.071H116.801C117.162 46.071 117.362 45.8767 117.362 45.5271V33.6402H123.568L128.534 45.6437C128.654 45.9156 128.854 46.0321 129.094 46.0321H131.216C131.537 46.0321 131.737 45.8768 131.737 45.566V45.3718C131.697 45.3718 126.531 33.3295 126.531 33.3295H126.451ZM128.293 25.9487C128.293 27.386 127.893 28.8233 127.052 29.7556C126.251 30.6491 125.13 31.1152 123.809 31.1152H117.282V21.0541H123.809C125.13 21.0541 126.251 21.5202 127.052 22.4137C127.893 23.3072 128.293 24.5114 128.293 25.9876V25.9487Z" fill="#191915"/>
<path d="M150.877 18.3349H148.835C148.474 18.3349 148.274 18.5291 148.274 18.8787V38.0298C148.274 39.6225 147.794 40.9433 146.833 41.9145C145.872 42.8856 144.23 43.3906 142.668 43.3906C141.107 43.3906 139.465 42.8856 138.504 41.9145C137.543 40.9433 137.062 39.6225 137.062 38.0298V18.8787C137.062 18.5291 136.862 18.3349 136.502 18.3349H134.46C134.099 18.3349 133.899 18.5291 133.899 18.8787V37.8745C133.899 39.506 134.259 40.9433 134.94 42.1864C135.621 43.4294 136.622 44.4006 137.863 45.061C139.105 45.7602 140.946 46.071 142.628 46.071C144.31 46.071 146.112 45.7214 147.393 45.061C148.634 44.3618 149.635 43.3906 150.316 42.1864C150.997 40.9433 151.357 39.506 151.357 37.8745V18.8787C151.357 18.5291 151.157 18.3349 150.797 18.3349H150.877Z" fill="#191915"/>
<path d="M168.495 20.6656V18.8399C168.495 18.4903 168.295 18.296 167.935 18.296H153.239C152.879 18.296 152.679 18.4903 152.679 18.8399V20.4714C152.679 20.821 152.879 21.0152 153.239 21.0152H164.971L152.839 42.8468C152.759 43.041 152.719 43.4683 152.719 43.6625V45.4883C152.719 45.8379 152.919 46.0321 153.279 46.0321H167.975C168.335 46.0321 168.535 45.8379 168.535 45.4883V43.8568C168.535 43.5071 168.335 43.3129 167.975 43.3129H156.242L168.415 21.2483C168.495 21.0152 168.535 20.8599 168.535 20.7045L168.495 20.6656Z" fill="#191915"/>
<path d="M44.0058 42.4199C44.0058 42.4199 44.0058 42.3423 43.9658 42.3034C43.9658 42.2257 43.9257 42.1869 43.8857 42.148L43.0448 41.3323V22.2588L43.7656 21.5984V19.3065C43.7656 19.0734 43.7655 18.8792 43.6454 18.685C43.4853 18.4907 43.245 18.3742 43.0048 18.3742H41.8035V10.9934C41.8035 10.7215 41.6834 10.4884 41.4431 10.3331H41.3631C41.3631 10.2942 41.4031 10.1777 41.4031 10.1777C41.8836 9.40076 42.1238 8.54614 42.1238 7.65268C42.1238 5.59384 40.7224 3.69038 38.6803 3.06884H38.6002L38.2398 0.854614C38.1197 0.271923 37.6392 0 37.1587 0C36.7182 0 36.2377 0.271923 36.1176 0.854614L35.7172 3.06884H35.6371C33.595 3.72923 32.1535 5.63269 32.1535 7.69153C32.1535 9.75037 32.3937 9.4396 32.8742 10.1777V10.2554C32.9143 10.2554 32.8742 10.3331 32.8742 10.3331C32.674 10.4884 32.5138 10.7215 32.5138 10.9546V16.8204H30.8721V13.0523L31.4327 12.5473V10.6438C31.4327 10.2165 31.0723 9.86691 30.6319 9.86691H28.3495C28.1893 9.86691 27.9891 9.86691 27.869 10.0223L27.4285 10.5273H26.7078L26.908 9.9446C26.948 9.71153 26.908 9.47845 26.7478 9.28422C26.5877 9.08999 26.3474 8.97345 26.1072 8.97345H18.0988C17.8586 8.97345 17.5783 9.08999 17.4582 9.28422C17.298 9.47845 17.2179 9.75037 17.298 9.98345L17.3781 10.5273H16.6573L16.2569 10.0223C16.1368 9.90576 15.9366 9.86691 15.7764 9.86691H13.494C13.0536 9.86691 12.6932 10.2165 12.6932 10.6438V12.5473L13.2538 13.0523V16.8204H11.6121V10.9934C11.6121 10.7215 11.492 10.4884 11.2517 10.3719L11.1716 10.2942V10.2165C11.6922 9.4396 11.9725 8.58499 11.9725 7.69153C11.9725 5.63269 10.531 3.72923 8.52888 3.10769H8.44879L8.04838 0.89346C7.92825 0.310769 7.40771 0.0388461 7.00729 0.0388461C6.44671 0.0388461 6.04629 0.388461 5.96621 0.89346L5.56579 3.10769H5.48571C3.44358 3.76807 2.00208 5.67153 2.00208 7.73037C2.00208 9.78922 2.24233 9.47845 2.72283 10.2165V10.2942C2.76288 10.2942 2.72283 10.3719 2.72283 10.3719C2.52263 10.5273 2.36246 10.7604 2.36246 10.9934V18.4131H1.16121C0.920958 18.4131 0.680708 18.5296 0.520542 18.7238C0.400417 18.8792 0.360375 19.0734 0.360375 19.3065V21.6373L1.04108 22.2588V41.3711L0.24025 42.2257C0.0800833 42.3811 0 42.5365 0 42.7696V45.3722C0 45.7996 0.360375 46.1492 0.800833 46.1492H10.9714L12.6532 44.4788H31.3927L33.0744 46.1492H43.3251C43.7655 46.1492 44.1259 45.7996 44.1259 45.3722V43.0026C44.1259 42.8861 44.1259 42.5365 44.0859 42.4588M42.0037 43.8961H33.9954L32.2736 42.2257H11.572L9.85025 43.8961H2.16225V43.2357L3.20333 42.2257V21.9092L2.52263 21.2877V20.2777H4.48467V12.0423L5.12533 11.3819V9.75037C5.04525 9.67268 4.96517 9.59499 4.88508 9.51729C4.72492 9.36191 4.56475 9.16768 4.44463 8.9346C4.24442 8.54614 4.12429 8.15768 4.12429 7.69153C4.12429 6.25422 5.32554 5.04999 6.84713 5.04999C8.36871 5.04999 9.56996 6.21538 9.56996 7.69153C9.56996 9.16768 9.36975 8.81806 9.04942 9.24537C9.04942 9.24537 9.00938 9.32306 8.96933 9.36191C8.92929 9.40076 8.88925 9.47845 8.84921 9.51729C8.76913 9.59499 8.68904 9.67268 8.649 9.71153V11.3431L9.28967 11.9646V18.9569H14.2548L15.4561 17.7527V12.5084H19.8206V11.1488H24.2252V12.5084H28.5898V17.5973L29.9111 18.9181H34.7161V11.9258L35.3568 11.3042V9.71153C35.2367 9.63383 35.1566 9.55614 35.0765 9.4396C34.9163 9.28422 34.7962 9.12883 34.7161 8.9346C34.4759 8.54614 34.3558 8.11884 34.3558 7.65268C34.3558 6.21538 35.557 5.01115 37.0786 5.01115C38.6002 5.01115 39.8014 6.17653 39.8014 7.65268C39.8014 9.12883 39.6012 8.77922 39.2809 9.20653C39.2809 9.24537 39.2408 9.28422 39.2008 9.32306C39.1608 9.36191 39.1207 9.40076 39.0807 9.47845C39.0006 9.55614 38.9205 9.63383 38.8404 9.67268V11.3042L39.4811 11.8869V20.1611H41.4832V21.3265L40.7624 22.0257V42.2257L42.0438 43.4688V43.8184L42.0037 43.8961Z" fill="#191915"/>
</svg>
