<svg width="65" height="71" viewBox="0 0 65 71" fill="none" xmlns="http://www.w3.org/2000/svg">
<path fill-rule="evenodd" clip-rule="evenodd" d="M15.7492 68.3225C15.9565 68.3225 16.0892 68.2891 16.1638 68.2224C16.2385 68.1557 16.2799 68.0055 16.3297 67.7887H16.5785L16.5619 71H16.3131C16.2716 70.7831 16.2136 70.633 16.1389 70.5579C16.0643 70.4828 15.9316 70.4411 15.7409 70.4411L6.41133 70.3911V70.0908C6.61036 70.0324 6.75134 69.9657 6.80939 69.8823C6.87978 69.7492 6.9114 69.5989 6.90062 69.4485L6.95037 59.5392C6.95037 59.314 6.9255 59.1722 6.85915 59.0805C6.79281 58.9887 6.66842 58.9303 6.46939 58.8803V58.5883L15.6911 58.6384C15.8902 58.6384 16.0228 58.605 16.0892 58.53C16.1555 58.4549 16.2053 58.3131 16.255 58.0879H16.5121L16.4955 61.2909H16.2385C16.197 61.074 16.1472 60.9406 16.0809 60.8571C15.9911 60.7803 15.8752 60.7414 15.7575 60.7487H15.6745L9.19776 60.7153V63.3011L13.3193 63.3261C13.5267 63.3261 13.6594 63.2928 13.7257 63.2344C13.792 63.176 13.8418 63.0175 13.8998 62.7923H14.1486L14.1321 65.7784H13.8833C13.8418 65.5616 13.792 65.4198 13.7174 65.3447C13.6428 65.2696 13.5101 65.2363 13.3111 65.2363L9.18118 65.2112L9.16459 68.2891L15.7575 68.3225H15.7492ZM22.2591 62.4753L22.2177 69.532C22.2177 69.7572 22.2508 69.9073 22.3089 69.9824C22.4154 70.0831 22.5473 70.1523 22.6904 70.1826V70.4745L19.763 70.4578V70.1659C19.9703 70.1075 20.103 70.0324 20.161 69.949C20.2191 69.8656 20.2522 69.7238 20.2522 69.5153L20.302 59.606C20.302 59.3891 20.2771 59.239 20.2108 59.1555C20.1064 59.0458 19.9698 58.9727 19.821 58.947V58.6634L23.5031 58.6801V58.9637C23.4132 58.983 23.3302 59.0262 23.2626 59.0888C23.2039 59.1463 23.1685 59.2235 23.1631 59.3057C23.1625 59.3899 23.1825 59.4729 23.2211 59.5476C23.2818 59.6528 23.3541 59.7507 23.4367 59.8395L28.9847 66.3957L29.0179 59.656C29.0179 59.4308 28.993 59.2807 28.9266 59.1972C28.8603 59.1138 28.7359 59.0554 28.5369 58.9971V58.7051L31.4643 58.7218V59.0054C31.2653 59.0721 31.1409 59.1389 31.0828 59.2306C31.0248 59.3224 30.9916 59.4558 30.9916 59.6643L30.9335 69.5737C30.9335 69.7989 30.9584 69.949 31.0248 70.0324C31.0911 70.1158 31.2072 70.1826 31.3979 70.2243V70.5246L28.0144 70.4995V70.2076C28.1049 70.1875 28.1898 70.1476 28.2632 70.0908C28.3159 70.0342 28.3455 69.9598 28.3461 69.8823C28.3467 69.7954 28.3268 69.7097 28.2881 69.632C28.227 69.5292 28.1577 69.4316 28.0808 69.3401L22.2591 62.4753ZM34.4249 69.6154L35.5444 66.8127L35.8595 66.9712C35.847 66.9916 35.8385 67.0143 35.8347 67.0379C35.8236 67.0903 35.8153 67.1432 35.8098 67.1964C35.8015 67.4884 36.2244 67.8137 37.062 68.164C37.8775 68.5139 38.7545 68.6955 39.6411 68.6978C40.4372 68.7062 41.0924 68.556 41.5982 68.2558C42.1041 67.9555 42.3695 67.5718 42.3695 67.1214C42.3778 66.379 41.5153 65.9536 39.7987 65.8535C39.1601 65.8285 38.6625 65.7868 38.306 65.7534C37.0703 65.6199 36.1581 65.2863 35.561 64.7358C34.9639 64.1853 34.6654 63.4429 34.6654 62.4753C34.6736 61.3076 35.1132 60.3733 35.9922 59.656C36.8713 58.9387 38.024 58.5967 39.4504 58.605C40.628 58.605 41.93 58.972 43.3315 59.6894C43.6881 59.8645 43.8954 59.9563 43.97 59.9563C44.0193 59.9519 44.0672 59.9377 44.111 59.9146L44.3432 59.7394L44.5754 59.8729L43.3149 62.6505L42.9915 62.4503V62.4003C42.9959 62.3783 42.9986 62.3559 42.9997 62.3335C42.9997 61.9749 42.61 61.6078 41.8304 61.2075C41.0749 60.8203 40.2403 60.6147 39.3923 60.6069C38.6377 60.6069 38.0323 60.7404 37.5679 61.0073C37.1035 61.2742 36.8796 61.6245 36.8796 62.0499C36.8713 62.6839 37.6093 63.0509 39.0772 63.1593C39.8401 63.226 40.4455 63.2928 40.9016 63.3595C42.1373 63.543 43.0744 63.935 43.7295 64.5439C44.3847 65.1528 44.6998 65.9202 44.6915 66.8795C44.6832 68.0139 44.2022 68.9397 43.2485 69.6738C42.2948 70.4078 41.0592 70.7748 39.5499 70.7664C38.115 70.76 36.7053 70.3868 35.4532 69.6821C35.2044 69.5486 35.0551 69.4902 35.0054 69.4902C34.9494 69.4829 34.8929 69.4979 34.8478 69.532C34.7984 69.5872 34.7616 69.6527 34.74 69.7238L34.4249 69.6154ZM47.6438 70.608V70.3077C47.8345 70.266 47.9672 70.2076 48.0336 70.1158C48.0999 70.0241 48.1248 69.8823 48.1248 69.6654L48.1828 59.7561C48.1828 59.5476 48.1497 59.4058 48.0916 59.3224C48.0336 59.239 47.9009 59.1555 47.7018 59.0972V58.8136L54.0211 58.8469C55.3562 58.8553 56.3928 59.1555 57.1309 59.7644C57.869 60.3734 58.2339 61.2075 58.2256 62.2835C58.2173 63.3595 57.8607 64.2437 57.1558 64.8776C56.4509 65.5115 55.4723 65.8201 54.2533 65.8118L50.4053 65.7951L50.3805 69.6821C50.3805 69.899 50.4053 70.0491 50.4717 70.1242C50.538 70.1992 50.6624 70.2743 50.8615 70.3244V70.6246L47.6355 70.608H47.6438ZM53.3908 60.8154L50.4385 60.7988L50.4219 63.7849L53.4488 63.8016C54.3445 63.8099 55.0079 63.6848 55.4309 63.4429C55.8538 63.201 56.0611 62.8173 56.0694 62.2918C56.0777 61.7663 55.8621 61.391 55.4557 61.1658C55.0494 60.9405 54.3611 60.8238 53.3908 60.8154Z" fill="#191915"/>
<path fill-rule="evenodd" clip-rule="evenodd" d="M28.3627 30.8707L28.4208 30.4286L28.5203 29.9531L28.6115 29.4693L28.7442 28.9939L28.8935 28.4934L29.0676 27.993L29.2584 27.4841L29.4408 26.9837L29.6481 26.4832L29.8969 25.9911L30.1208 25.5073L30.3862 25.0318L30.6433 24.5731L30.9087 24.131L31.1906 23.6889L31.4726 23.2802L31.7711 22.9132L32.0531 22.5462L32.3516 22.2375L32.6502 21.9373L32.9487 21.687L33.2473 21.4618L33.5458 21.2783L33.8443 21.1532L34.1429 21.0614L34.4166 21.0114H34.6985L34.9722 21.0865L35.2376 21.1949L35.4781 21.3617L35.7351 21.6036L35.959 21.9039L35.8761 22.3793L35.8181 22.8465L35.7268 23.3052L35.6522 23.789L35.5527 24.2478L35.4615 24.7232L35.362 25.1903L35.2459 25.6491L35.1381 26.1078L35.0219 26.5499L34.9058 27.0087L34.7732 27.4508L34.6405 27.9179L34.5078 28.36L34.3585 28.7854L34.2092 29.2274L34.06 29.6445L33.8858 30.0699L33.72 30.4786L33.5458 30.879L33.3634 31.2877L33.1726 31.6881L32.9819 32.0801L32.7829 32.4471L32.5755 32.8308L32.3682 33.1812L32.1443 33.5482L31.9204 33.8818L31.6716 34.2321L31.4477 34.5408L31.2072 34.8577L30.9418 35.1664L30.7926 35.0412L30.6267 34.8744L30.4442 34.6659L30.2452 34.424L30.0379 34.1654L29.8389 33.8902L29.6315 33.5732L29.4325 33.2562L29.2252 32.9476L29.0427 32.614L28.8769 32.297L28.711 31.9633L28.5866 31.6714L28.4705 31.3711L28.4042 31.1125L28.3627 30.8707ZM7.33185 33.2312L7.43136 32.6056L7.58064 31.9633L7.78796 31.2794L8.05333 30.5954L8.33529 29.9364L8.6753 29.2692L9.0319 28.6686L9.42167 28.1097L9.81973 27.6176L10.2261 27.1922L10.6407 26.8669L11.0471 26.6417L11.4369 26.5332L11.8266 26.575L12.1832 26.7585L12.4983 27.0921L12.3988 27.726L12.2827 28.3516L12.15 28.9772L12.0008 29.6028L11.8432 30.2117L11.6608 30.8206L11.47 31.4128L11.2627 31.9967L11.0388 32.5723L10.79 33.1228L10.5246 33.6566L10.2675 34.1904L9.969 34.6909L9.66216 35.183L9.36362 35.6418L9.0319 36.0839L8.82458 35.8253L8.58408 35.475L8.31042 35.0829L7.79625 34.2321L7.57234 33.8234L7.42307 33.4898L7.33185 33.2312ZM47.1794 47.603L47.196 47.2027L47.2374 46.7773L47.2789 46.3685L47.3121 45.9682L47.3535 45.5761L47.4116 45.1674L47.5277 44.4L47.6023 44.008L47.677 43.6243L47.7599 43.2323L47.8345 42.8653L47.9258 42.4816L48.0004 42.1062L48.0999 41.7392L48.216 41.3722L48.3072 41.0052L48.4233 40.6382L48.5145 40.2628L48.6306 39.9125L48.7385 39.5455L48.8711 39.1785L48.9872 38.8281L49.1199 38.4778L49.2526 38.1108L49.3853 37.7605L49.518 37.3934L49.6507 37.0431L49.7999 36.6928L49.9326 36.3425L50.0819 35.9754L50.2312 35.6251L50.4136 35.9588L50.5961 36.3091L50.7868 36.6594L50.9858 37.0264L51.2263 37.3851L51.5 37.7188L51.7985 38.0691L52.1717 38.386L52.3708 38.3443L52.5615 38.2943L52.7605 38.2609L52.9513 38.2192L53.1337 38.1692L53.2996 38.1275L53.4903 38.0774L53.6727 38.0441L53.8386 37.9857L54.0293 37.9523L54.2118 37.8939L54.4025 37.8439L54.5684 37.8022L54.7508 37.7521L54.9581 37.7188L55.1489 37.6604L55.2235 37.1098L55.3396 36.5927L55.4723 36.0755L55.6216 35.6001L55.7874 35.1163L55.9782 34.6409L56.1689 34.1571L56.3928 33.6649L56.6002 33.1478L56.8407 32.614L57.0728 32.0384L57.2968 31.4128L57.5207 30.7539L57.7529 30.0282L57.9602 29.2608L58.1675 28.41L58.4246 28.9105L58.6651 29.4276L58.8807 29.9615L59.1046 30.5036L59.3036 31.0375L59.511 31.588L59.6934 32.1469L59.8759 32.7224L60.0334 33.2896L60.1993 33.8651L60.3486 34.4574L60.4895 35.0496L60.6388 35.6418L60.8876 36.8596L61.0037 37.4685L61.2193 38.6863L61.3271 39.3036L61.4183 39.9125L61.5013 40.5381L61.5925 41.147L61.6671 41.7559L61.7584 42.3898L61.8247 42.9987L61.8993 43.6076L61.9657 44.2165L62.0403 44.8087L62.1067 45.4176L62.1813 46.0099L62.2311 46.5938L62.3057 47.186L62.4135 47.8533L62.712 48.3204L63.135 48.5956L63.616 48.7124L64.0804 48.6373L64.5116 48.4371L64.8102 48.0868L64.9263 47.6281L64.8516 46.9441L64.7604 46.2434L64.6775 45.5594L64.5863 44.8755L64.495 44.1748L64.2794 42.8069L64.155 42.1062L64.0306 41.4222L63.8979 40.7383L63.757 40.0543L63.6326 39.3703L63.4667 38.6863L63.3174 38.0024L63.1599 37.3184L62.9774 36.6511L62.795 35.9671L62.4301 34.6325L62.2228 33.9736L62.0071 33.3063L61.8081 32.6557L61.5842 31.9884L61.352 31.3461L61.1115 30.6955L60.871 30.0699L60.6139 29.4193L60.3569 28.7937L60.0998 28.1598L59.8261 27.5342L59.5524 26.9253L59.2539 26.308V25.6241L59.2954 24.9234L59.3368 24.1894L59.3949 23.447L59.4529 22.6713L59.5524 21.9206L59.6437 21.1449L59.7432 20.3858L59.8593 19.6268L59.9754 18.8927L60.0915 18.1921L60.2242 17.4914L60.3569 16.8492L60.4895 16.2402L60.6388 15.648L60.7715 15.1309L60.813 14.9641L60.8295 14.7805L60.8544 14.6137V14.2634L60.871 14.1133L60.8959 13.9715L60.9125 13.838L59.5524 18.0419L59.2041 17.6499L59.5607 16.5489L60.191 12.6369L60.0583 13.0372L59.9256 13.446L59.8178 13.8297L59.71 14.2384L59.5939 14.6471L59.4861 15.0475L59.2539 15.8649L59.1378 16.282L59.0466 16.6907L58.9471 17.0994L58.8392 17.4998L58.7397 17.9252L58.6485 18.3339L58.549 18.7343L58.4744 19.1597L58.3831 19.5684L58.2836 19.9938L58.209 20.3941L58.1178 20.8195L58.0348 21.2449L57.9436 21.6537L57.869 22.0791L57.786 22.4961L57.6948 22.9048L57.6202 23.3302L57.5373 23.7556L57.4626 24.181L57.388 24.5981L57.2968 25.0235L57.2138 25.4489L57.1392 25.8743L56.766 25.6658L56.3762 25.524L55.9865 25.4406L55.6216 25.4239L55.2235 25.4739L54.8338 25.5657L54.4274 25.7158L54.0211 25.916L53.6064 26.1496L53.2001 26.4415L52.7522 26.7751L52.321 27.1255L51.8732 27.5258L51.4088 27.9512L50.9195 28.41L50.4302 28.8855L50.2892 28.4601L49.9907 27.6426L49.8663 27.2589L49.7585 26.8669L49.6258 26.4999L49.5014 26.1078L49.3936 25.7242L49.2609 25.3321L49.1531 24.9067L49.0287 24.4813L48.8794 24.0392L48.755 23.5555L48.6058 23.0633L48.4399 22.5462L48.274 21.9706L47.9838 21.6703L47.6853 21.4868L47.3701 21.4285L47.0716 21.4618L46.8145 21.5703L46.5657 21.7538L46.3833 21.9957L46.2506 22.2876L46.3418 22.9382L46.4496 23.6222L46.5574 24.3228L46.6984 25.0402L46.8477 25.7659L47.0052 26.4999L47.1877 27.2256L47.3701 27.9429L47.5526 28.6519L47.7516 29.3359L47.934 29.9782L48.1414 30.6121L48.3404 31.2043L48.5228 31.7381L48.7219 32.2219L48.9126 32.664L48.7053 33.1395L48.498 33.6399L48.2658 34.1154L48.0584 34.5741L47.8594 35.0579L47.6521 35.5334L47.4613 35.9921L47.254 36.4759L47.0467 36.9347L46.856 37.3934L46.6735 37.8522L46.4828 38.336L46.1013 39.2535L45.9354 39.7206L45.7696 40.1794L45.6369 39.5455L45.4959 38.9199L45.3632 38.2776L45.2223 37.6437L45.073 37.0181L44.932 36.3925L44.7661 35.7419L44.6252 35.1163L44.4593 34.4824L44.2769 33.8568L44.111 33.2312L43.9286 32.5973L43.7461 31.9717L43.5637 31.3378L43.3812 30.7289L43.1822 30.1033L42.5768 28.2515L42.3529 27.6259L42.1373 27.017L41.9134 26.3998L41.6812 25.8076L41.4573 25.1987L41.2168 24.6064L40.9846 23.9975L40.4704 22.8131L40.2299 22.2375L39.9562 21.6453L39.6992 21.0781L39.4172 20.5026V19.0262L39.4421 18.484L39.4587 17.9502L39.5001 17.4164L39.525 16.8658L39.5665 16.307L39.6245 15.7398L39.666 15.1642L39.724 14.597L39.7987 14.0048L39.8567 13.4293L39.9397 12.8454L39.9977 12.2699L40.0723 11.6943L40.147 11.1271L40.2465 10.5516L40.3958 9.45054L40.4953 8.89168L40.5948 8.35785L40.6694 7.8407L40.7607 7.34023L40.8602 6.8481L40.9514 6.36431L41.0509 5.90555L41.1255 5.46346L41.2251 5.03806L41.3163 4.65437L41.3909 4.26233L41.4904 3.91201L41.5817 3.545L41.6397 3.22803L41.6563 2.95277L41.6397 2.6942L41.6231 2.49401V2.127L41.6812 1.97686L39.6992 7.9825L39.3177 7.37359L39.5416 5.7137L40.7441 0L40.5533 0.600564L40.3709 1.20947L40.1801 1.80169L39.9894 2.4106L39.8236 3.0195L39.4753 4.23731L39.1767 5.45512L39.0026 6.06403L38.8533 6.67293L38.7206 7.29852L38.5713 7.90743L38.4303 8.51633L38.2977 9.14192L38.0323 10.3597L37.8996 10.9853L37.7669 11.5942L37.6342 12.2198L37.5181 12.8454L37.3854 13.4543L37.2693 14.0799L37.1366 14.7138L36.9044 15.965L36.7966 16.5906L36.6639 17.2162L36.5478 17.8418L36.4317 18.4757L36.2991 19.1013L36.183 19.7269L35.5776 19.4099L34.9888 19.2014L34.3917 19.1096L33.8195 19.0846L33.2224 19.1597L32.6419 19.3181L32.0448 19.56L31.4477 19.8687L30.834 20.2523L30.2203 20.6944L29.5901 21.1866L28.9101 21.7371L28.2383 22.321L27.5334 22.9465L26.7871 23.6055L26.0241 24.3062L25.8002 23.6555L25.6012 23.0466L25.4187 22.4544L25.2114 21.8622L25.0538 21.295L24.8714 20.7195L24.689 20.1272L24.5231 19.535L24.3407 18.9428L24.1582 18.3172L23.9592 17.6666L23.7519 16.9826L23.5362 16.2653L23.2957 15.5062L23.0635 14.6888L22.7899 13.8213L22.4167 13.3959L21.9938 13.1707L21.5625 13.0956L21.1396 13.1624L20.7249 13.3459L20.3518 13.6628L20.0698 14.0298L19.8625 14.4719L19.9205 14.9474L19.9869 15.4478L20.0615 15.9483L20.1527 16.4488L20.2274 16.9659L20.3103 17.4831L20.4264 18.0169L20.5093 18.5508L20.6171 19.0679L20.7332 19.6101L20.8576 20.1439L20.9654 20.6777L21.0898 21.2116L21.2225 21.7538L21.3635 22.2876L21.4962 22.8047L21.6372 23.3219L21.7698 23.8391L21.9108 24.3395L22.0601 24.84L22.2011 25.3405L22.3503 25.8159L22.5162 26.283L22.6655 26.7251L22.8313 27.1672L22.9723 27.5926L23.1382 28.018L23.2874 28.41L23.4533 28.7937L23.5943 29.1524L23.7601 29.5027L23.9094 29.8113L23.5943 30.537L23.2709 31.271L22.9723 31.9884L22.6489 32.689L22.3503 33.4064L22.0435 34.1237L21.745 34.8244L21.181 36.2257L20.8991 36.943L20.6171 37.6437L19.821 39.7457L19.5805 40.463L19.3317 41.1637L19.2405 40.6632L19.1576 40.1877L18.9751 39.1868L18.8839 38.703L18.7761 38.2025L18.6683 37.7271L18.5522 37.2433L18.4444 36.7679L18.1956 35.8003L18.0795 35.3248L17.9385 34.841L17.8058 34.3573L17.6814 33.8818L17.5322 33.4147L17.3912 32.9393L17.2419 32.4722L17.076 32.0134L16.9351 31.5296L16.7692 31.0708L16.6033 30.6037L16.4209 30.145L16.255 29.6862L16.0726 29.2358L15.8902 28.777L15.7077 28.3099L15.5004 27.8678L15.3179 27.4091L15.1189 26.9586L14.895 26.5166L14.696 26.0745V25.3905L14.7789 23.9475L14.837 23.1968L14.895 22.4211L14.9945 21.6453L15.0774 20.8696L15.1687 20.0939L15.2848 19.3348L15.4009 18.6008L15.517 17.9001L15.6497 17.1995L15.7658 16.5489L15.8984 15.9483L16.0145 15.3894L16.1472 14.8973L16.2053 14.7305L16.2385 14.547L16.2633 14.3802L16.2799 14.1967L16.2633 14.0298V13.8797L16.2468 13.7296V13.6044L14.9613 17.8L14.6296 17.4164L14.837 16.307L15.716 12.395L15.5584 12.8037L15.434 13.2124L15.2765 13.5961L15.1438 14.0048L15.036 14.4052L14.9033 14.8139L14.7872 15.2226L14.6711 15.623L14.5633 16.0484L14.4472 16.4571L14.3311 16.8575L14.2399 17.2662L14.1403 17.6916L14.0491 18.092L13.9496 18.5007L13.8584 18.9261L13.7589 19.3265L13.6842 19.7519L13.593 20.1606L13.5184 20.586L13.4189 21.0114L13.3442 21.4118L13.2447 21.8372L13.1701 22.2626L13.0954 22.6713L13.0208 23.0883L12.9213 23.5137L12.8467 23.9391L12.7471 24.3645L12.5979 25.2153L12.5066 25.6407L12.092 25.4322L11.7022 25.2821L11.3125 25.207L10.9227 25.182L10.5495 25.2404L10.1597 25.3321L9.76997 25.4739L9.3802 25.6741L8.97385 25.916L8.5592 26.2079L8.15285 26.5332L7.72162 26.8836L7.29039 27.2923L6.82598 27.7094L6.35328 28.1681L5.87229 28.6519L5.70643 28.2265L5.54058 27.8178L5.3913 27.4091L5.25032 27.017L5.11764 26.6333L4.97666 26.258L4.84397 25.8743L4.73616 25.4823L4.60348 25.0986L4.47908 24.6732L4.32981 24.2478L4.20542 23.8057L4.05614 23.3219L3.91516 22.8214L3.7493 22.3043L3.58345 21.7287L3.32636 21.4368L3.02782 21.2449L2.75415 21.1949L2.47219 21.2283L2.21511 21.3367L1.96632 21.5202L1.78388 21.7621L1.63461 22.054L1.70095 22.6963L1.80876 23.3803L1.91656 24.0893L2.04096 24.8066L2.20682 25.524L2.37267 26.2663L2.55512 26.9837L2.73757 27.7094L2.9366 28.41L3.13563 29.094L3.33466 29.7446L3.55857 30.3702L3.77418 30.9624L3.9815 31.4962L4.19712 31.98L4.40444 32.4221L4.21371 32.8892L4.00638 33.3313L3.81565 33.7734L3.60832 34.2321L3.42588 34.6742L3.23514 35.0996L3.0444 35.5417L2.86196 35.9838L2.67122 36.4259L2.50536 36.8429L2.31463 37.285L2.14047 37.7271L1.97461 38.1525L1.80876 38.5946L1.65119 39.0367L1.20337 40.3629L1.07069 40.83L0.921411 41.2721L0.805313 41.7309L0.672623 42.1896L0.573112 42.6484L0.4653 43.1155L0.365789 43.5909L0.274564 44.0747L0.191634 44.5668L0.117001 45.0506L0.0589496 45.5511L0.000898063 46.0599L-0.0820312 47.0942L0.00918897 47.7281L0.175048 48.2453L0.432132 48.5956L0.763849 48.8208L1.15362 48.8792L1.58485 48.7458L2.06584 48.4371L2.57171 47.945L2.59658 47.5196L2.62976 47.0942L2.65464 46.6688L2.6961 46.2434L2.75415 45.818L2.8122 45.4176L2.9283 44.6002L2.98635 44.1998L3.13563 43.3824L3.23514 42.9987L3.30978 42.59L3.401 42.2063L3.50052 41.7976L3.60832 41.4139L3.70784 41.0219L3.81565 40.6382L3.93175 40.2711L4.04785 39.8791L4.16395 39.4954L4.27176 39.1284L4.40444 38.7364L4.53713 38.3694L4.66982 37.9857L4.80251 37.6187L4.93519 37.2433L5.06788 36.8596L5.20057 36.4926L5.34984 36.1256L5.48252 35.7502L5.6318 35.3832L5.79766 35.7169L5.9801 36.0672L6.16255 36.4259L6.38646 36.7929L6.61037 37.1432L6.86744 37.4769L7.12453 37.8272L7.42307 38.1441L7.66357 38.1108L7.88747 38.0524L8.11138 38.019L8.31042 37.9857L8.51774 37.9273L8.72506 37.8939L8.92409 37.8439L9.11483 37.8022L9.29727 37.7521L9.5046 37.7104L9.68704 37.6604L9.89436 37.602L10.0768 37.5686L10.2841 37.5186L10.4915 37.4769L10.7154 37.4268L10.7734 36.868L10.8481 36.3591L10.9476 35.842L11.0803 35.3582L11.2295 34.8828L11.3954 34.399L11.5861 33.9235L11.7934 33.423L12.0008 32.9059L12.2081 32.3721L12.432 31.8049L12.6559 31.1793L12.8715 30.512L13.0954 29.7946L13.3028 29.0189L13.4935 28.1681L13.7506 28.6686L14.0077 29.1941L14.2482 29.7279L14.4638 30.2617L14.6877 30.8039L14.8867 31.3544L15.0692 31.9133L15.2516 32.4805L15.434 33.056L15.5999 33.6316L15.7492 34.2238L15.915 34.816L16.0394 35.4082L16.2882 36.6261L16.4209 37.235L16.5287 37.8439L16.6199 38.4528L16.7277 39.0617L16.819 39.6706L16.9019 40.3045L16.9765 40.9134L17.0677 41.5223L17.1341 42.1479L17.2087 42.7568L17.2585 43.3657L17.3331 43.9746L17.3829 44.5668L17.4575 45.1758L17.557 46.3602L17.6151 46.9524V47.2277L17.6317 47.3028L17.6483 47.3945L17.6814 47.4696L17.7229 47.5446L17.7726 47.5947L17.7395 47.8533L17.6814 48.1369L17.64 48.3954L17.6068 48.6457L17.5653 48.9043L17.5239 49.1461L17.4907 49.4047L17.4658 49.6633L17.4326 49.9219L17.4078 50.1805L17.3912 50.439L17.3663 50.6976L17.3331 51.2481V51.8237L17.3663 52.3075L17.4575 52.7495L17.5736 53.1332L17.7395 53.4836L17.9385 53.7838L18.1624 54.0257L18.4029 54.2092L18.6766 54.3427L18.9751 54.4178L19.2737 54.4344L19.5888 54.3844L19.9205 54.2593L20.2605 54.0758L20.5922 53.8172L20.9323 53.5002L21.2474 53.0999L21.2889 52.4326L21.3718 51.1397L21.4298 50.5141L21.5045 49.8885L21.5874 49.2629L21.662 48.6373L21.7616 48.0284L21.8528 47.4195L21.9523 46.8106L22.0684 46.2017L22.4665 44.4251L22.5991 43.8412L22.7484 43.2656L22.906 42.6984L23.0718 42.1229L23.2211 41.5557L23.3953 40.9801L23.586 40.4296L23.7519 39.8541L24.1333 38.7531L24.3407 38.2025L24.5314 37.6437L24.7387 37.1098L25.1534 36.0088L25.3773 35.475L25.5846 34.9161L25.8085 34.3823L25.9412 34.6242L26.0822 34.8661L26.2149 35.108L26.3641 35.3665L26.5051 35.6251L26.6544 35.8837L26.8037 36.159L26.9695 36.4259L27.1354 36.6844L27.3178 36.9597L27.5251 37.2183L27.7242 37.4769L27.9315 37.7354L28.4125 38.2192L28.6696 38.4611L28.9847 38.386L29.2998 38.3193L29.5984 38.2442L29.9135 38.1692L30.212 38.1191L30.5106 38.0441L30.8091 37.9773L31.1077 37.9189L31.4062 37.8689L31.6965 37.7938L31.9784 37.7188L32.277 37.6687L32.5589 37.5936L32.8575 37.5269L33.1312 37.4518L33.4297 37.3768L33.4712 36.9764L33.5126 36.5677L33.5707 36.184L33.6453 35.8086L33.72 35.4249L33.8112 35.0579L33.9107 34.7076L34.0185 34.3406L34.1346 33.9902L34.2507 33.6149L34.3834 33.2646L34.5161 32.8976L34.6488 32.5472L34.798 32.1802L34.9473 31.7965L35.0966 31.4212L35.2459 31.0375L35.42 30.6371L35.5859 30.2284L35.7351 29.803L35.9093 29.3609L36.0751 28.9188L36.2493 28.4601L36.5893 27.4675L36.7552 26.9503L36.9044 26.4165L37.0786 25.8409L37.2279 25.2487L37.3854 24.6398L37.5347 23.9975L37.684 23.3302L38.0737 24.1143L38.422 24.89L38.7704 25.6991L39.1021 26.5166L39.4089 27.334L39.7075 28.1848L40.2548 29.8864L40.5119 30.7539L40.7441 31.638L40.9597 32.5305L41.1836 33.4147L41.3826 34.3239L41.5817 35.2247L41.7641 36.1339L41.9465 37.0515L42.1041 37.9773L42.2534 38.8865L42.3944 39.8124L42.5353 40.7299L42.7841 42.5816L42.9168 43.5075L43.0163 44.4251L43.149 45.3509L43.232 46.2601L43.3398 47.1776L43.431 48.0868L43.5388 48.971L43.6217 49.8802L43.7129 50.7643L43.7959 51.6318L43.8125 52.1657L43.9286 52.6077L44.111 52.9998L44.3515 53.3L44.6418 53.5586L44.9983 53.7255L45.3715 53.8339L45.7364 53.8756H46.1262L46.4994 53.8089L46.856 53.6587L47.1711 53.4752L47.4365 53.2417L47.6355 52.9414L47.7682 52.591L47.8262 52.2074L47.7931 51.9154L47.7599 51.6318L47.7018 51.3399L47.6687 51.0646L47.6355 50.7643L47.594 50.4891L47.5443 50.2138L47.5028 49.9135L47.4696 49.6383L47.4365 49.3463L47.3784 49.0627L47.3452 48.7708L47.3121 48.4955L47.2706 48.1953L47.2209 47.9033L47.1877 47.603H47.1794ZM51.9727 33.4731L52.0473 32.8475L52.1966 32.1969L52.3873 31.5213L52.6361 30.8373L52.9181 30.17L53.2581 29.511L53.6147 28.9021L53.9879 28.3516L54.3611 27.8512L54.7674 27.4341L55.1655 27.1004L55.5552 26.8836L55.9284 26.7751L56.3016 26.8085L56.6333 27.0004L56.9236 27.334L56.8489 27.9596L56.7577 28.5852L56.6416 29.2108L56.5089 29.8447L56.3514 30.4453L56.2021 31.0542L55.8206 32.2386L55.6133 32.8058L55.3894 33.3647L55.1489 33.8985L54.8835 34.4323L54.585 34.9245L54.2864 35.4249L53.963 35.8837L53.6313 36.3258L53.424 36.0672L52.9264 35.3248L52.4122 34.474L52.2132 34.0653L52.0639 33.7317L51.9727 33.4731ZM8.25237 14.0382L8.74994 14.1716L9.21434 14.3802L9.6207 14.6221L9.96071 14.9307L10.2178 15.2894L10.4002 15.6731L10.4915 16.0818V16.5238L10.3919 16.8742L10.2095 17.2078L9.94413 17.4998L9.58752 17.7417L9.18117 17.9418L8.73335 18.0836L8.22749 18.1754L7.71332 18.1921L7.20746 18.092L6.76793 17.9085L6.35328 17.6666L6.00498 17.3496L5.73131 16.9993L5.54058 16.6073L5.43277 16.1985V15.7815L5.54058 15.3894L5.73131 15.0391L6.01327 14.7472L6.34499 14.4886L6.75964 14.2717L7.19916 14.1299L7.70503 14.0549L8.24407 14.0382H8.25237ZM29.7228 2.4523L30.0959 2.50235L30.4608 2.61913L30.8008 2.72756L31.1326 2.8777L31.4477 3.04453L31.7214 3.25305L32.0033 3.47827L32.2438 3.69514L32.4677 3.96205L32.6502 4.22063L32.7994 4.49589L32.9238 4.78783L33.0151 5.08811L33.0731 5.38005L33.0897 5.69702L33.0648 6.01398L33.0068 6.28924L32.9155 6.5645L32.7829 6.82307L32.6336 7.08165L32.4263 7.3152L32.2024 7.54041L31.9619 7.7406L31.6799 7.92411L31.3814 8.09093L31.0496 8.23273L30.7096 8.34117L30.3613 8.43292L29.9881 8.50799L29.5984 8.54135H29.2086L28.8188 8.51633L28.4457 8.45794L28.0891 8.36619L27.7573 8.24941L27.4256 8.10761L27.1271 7.93245L26.8285 7.74894L26.5549 7.54875L26.3144 7.32354L26.107 7.08165L25.908 6.83976L25.7587 6.5645L25.6343 6.28924L25.5431 5.98896L25.5017 5.69702L25.4851 5.39673L25.5265 5.08811L25.568 4.78783L25.6592 4.51257L25.7753 4.23731L25.9246 3.97874L26.107 3.73684L26.3144 3.51997L26.5549 3.31978L26.8368 3.13628L27.1188 2.96945L27.4339 2.82765L27.7905 2.71922L28.1388 2.60244L28.512 2.53571L28.9018 2.47733L29.3164 2.44396L29.7228 2.4523ZM52.7937 14.2801L53.2747 14.4052L53.7391 14.6137L54.1537 14.8556L54.5186 15.1726L54.8172 15.5229L55.0162 15.9149L55.1489 16.3153L55.1655 16.7657L55.066 17.1161L54.8586 17.4414L54.5601 17.7417L54.2118 17.9752L53.7806 18.1754L53.3162 18.3255L52.8103 18.409L52.2712 18.4256L51.7737 18.3339L51.3093 18.142L50.878 17.9001L50.5297 17.5832L50.2312 17.2328L50.0487 16.8492L49.9575 16.4404L49.9824 16.015L50.0985 15.6313L50.2975 15.281L50.5795 14.9807L50.9195 14.7305L51.3259 14.5053L51.7737 14.3635L52.2795 14.2884L52.7937 14.2801Z" fill="#191915"/>
</svg>
