<svg width="159" height="71" viewBox="0 0 159 71" fill="none" xmlns="http://www.w3.org/2000/svg">
<path fill-rule="evenodd" clip-rule="evenodd" d="M17.9977 14.1553L26.4524 22.61C28.9504 25.1079 32.217 26.3569 35.5156 26.3569C38.7821 26.3569 42.0807 25.1079 44.5787 22.61L53.0334 14.1553L47.9093 9.03125L39.4547 17.4859C38.3658 18.5748 36.9567 19.0872 35.5476 19.0872C34.1385 19.0872 32.6973 18.5428 31.6405 17.4859L23.1218 9.03125L17.9977 14.1553Z" fill="#660099"/>
<path fill-rule="evenodd" clip-rule="evenodd" d="M56.1403 18.1904L47.6856 26.6451C45.1877 29.1431 43.9387 32.4096 43.9387 35.7082C43.9387 39.0068 45.1877 42.2734 47.6856 44.7714L56.1403 53.2261L61.2644 48.102L52.8097 39.6474C51.7208 38.5585 51.2084 37.1494 51.2084 35.7403C51.2084 34.3312 51.7529 32.89 52.8097 31.8332L61.2644 23.3145L56.1403 18.1904Z" fill="#FFB000"/>
<path fill-rule="evenodd" clip-rule="evenodd" d="M53.0021 58.3178L44.5475 49.8632C42.0495 47.3652 38.7829 46.1162 35.4843 46.1162C32.2177 46.1162 28.9191 47.3652 26.4212 49.8632L17.9665 58.3178L23.0905 63.4419L31.5452 54.9872C32.6341 53.8983 34.0432 53.3859 35.4523 53.3859C36.8614 53.3859 38.3025 53.9304 39.3594 54.9872L47.814 63.4419L53.0021 58.3178Z" fill="#1A69F9"/>
<path fill-rule="evenodd" clip-rule="evenodd" d="M13.835 53.194L22.2896 44.7394C24.7876 42.2414 26.0366 38.9748 26.0366 35.6762C26.0366 32.4096 24.7876 29.111 22.2896 26.6131L13.835 18.1904L8.71094 23.3145L17.1656 31.7691C18.2545 32.858 18.7669 34.2671 18.7669 35.6762C18.7669 37.0853 18.2224 38.5265 17.1656 39.5833L8.71094 48.038L13.835 53.194Z" fill="#FF0066"/>
<path fill-rule="evenodd" clip-rule="evenodd" d="M6.0848 41.569C9.44745 41.569 12.1696 38.8469 12.1696 35.4842C12.1696 32.1216 9.44745 29.3994 6.0848 29.3994C2.72215 29.3994 0 32.1216 0 35.4842C0 38.8469 2.72215 41.569 6.0848 41.569Z" fill="#FF0066"/>
<path fill-rule="evenodd" clip-rule="evenodd" d="M29.4314 6.0848C29.4314 9.44745 32.1535 12.1696 35.5162 12.1696C38.8788 12.1696 41.601 9.44745 41.601 6.0848C41.601 2.72215 38.8788 0 35.5162 0C32.1535 0 29.4314 2.72215 29.4314 6.0848Z" fill="#660099"/>
<path fill-rule="evenodd" clip-rule="evenodd" d="M64.9155 29.4316C61.5528 29.4316 58.8307 32.1538 58.8307 35.5164C58.8307 38.8791 61.5528 41.6012 64.9155 41.6012C68.2781 41.6012 71.0003 38.8791 71.0003 35.5164C71.0003 32.1538 68.2781 29.4316 64.9155 29.4316Z" fill="#FFB000"/>
<path fill-rule="evenodd" clip-rule="evenodd" d="M41.5689 64.9149C41.5689 61.5522 38.8467 58.8301 35.4841 58.8301C32.1214 58.8301 29.3993 61.5522 29.3993 64.9149C29.3993 68.2775 32.1214 70.9997 35.4841 70.9997C38.8467 70.9997 41.5689 68.2775 41.5689 64.9149Z" fill="#1A69F9"/>
<path d="M86.1798 23.4108C85.2831 23.4108 84.4825 23.2507 83.7139 22.9304C82.9453 22.6102 82.2728 22.1298 81.7283 21.5213C81.1519 20.9128 80.7355 20.1762 80.3833 19.2795C80.063 18.3828 79.9029 17.358 79.9029 16.2051C79.9029 15.0522 80.063 14.0274 80.4153 13.1307C80.7676 12.234 81.2159 11.4974 81.8244 10.8889C82.4009 10.2804 83.1054 9.83208 83.842 9.51183C84.6106 9.19158 85.4112 9.06348 86.2439 9.06348C86.7563 9.06348 87.2367 9.0955 87.653 9.15955C88.0693 9.2236 88.4536 9.31968 88.7739 9.41575C89.0941 9.51183 89.3503 9.63993 89.5745 9.70398C89.7987 9.80006 89.9588 9.89613 90.0869 9.96018L89.6706 11.1131C89.3503 10.8889 88.934 10.7288 88.3896 10.5366C87.8772 10.3445 87.2367 10.2484 86.5001 10.2484C85.6354 10.2484 84.8668 10.4085 84.2583 10.6968C83.6178 10.985 83.0734 11.4013 82.625 11.9137C82.1767 12.4261 81.8564 13.0666 81.6323 13.8032C81.4081 14.5398 81.312 15.3404 81.312 16.2371C81.312 17.1659 81.4081 17.9985 81.6323 18.7031C81.8564 19.4397 82.1767 20.0481 82.593 20.5926C83.0093 21.137 83.5217 21.5213 84.1622 21.7775C84.8028 22.0337 85.5073 22.1938 86.2759 22.1938C87.1406 22.1938 87.8772 22.0978 88.4857 21.9376C89.0621 21.7775 89.5425 21.6174 89.8307 21.4252L90.215 22.5781C90.1189 22.6422 89.9588 22.7383 89.7346 22.8023C89.5105 22.8984 89.2222 22.9624 88.87 23.0585C88.5177 23.1546 88.1334 23.2186 87.685 23.2827C87.2367 23.3788 86.7243 23.4108 86.1798 23.4108Z" fill="black"/>
<path d="M102.289 23.122C102.033 22.4495 101.777 21.777 101.553 21.1685C101.329 20.528 101.104 19.9515 100.912 19.343H94.187C93.9628 19.9515 93.7387 20.56 93.5145 21.1685C93.2903 21.809 93.0661 22.4495 92.8099 23.122H91.4008C91.9132 21.6809 92.4256 20.3358 92.874 19.0868C93.3223 17.8379 93.8027 16.6849 94.2511 15.5641C94.6994 14.4752 95.1478 13.3863 95.5961 12.3615C96.0445 11.3367 96.4928 10.3119 97.0052 9.28711H98.1902C98.6705 10.3119 99.1509 11.3367 99.5993 12.3615C100.048 13.3863 100.464 14.4432 100.944 15.5641C101.393 16.6529 101.841 17.8379 102.321 19.0868C102.802 20.3358 103.314 21.6809 103.827 23.122H102.289ZM97.5497 10.8563C97.0373 12.0093 96.5569 13.1622 96.0765 14.3471C95.5961 15.532 95.1157 16.813 94.6033 18.1581H100.496C99.9836 16.781 99.5032 15.5 99.0228 14.3151C98.5424 13.1622 98.03 12.0093 97.5497 10.8563Z" fill="black"/>
<path d="M111.96 21.1042C111.832 20.784 111.64 20.3356 111.384 19.7912C111.127 19.2468 110.871 18.6383 110.551 17.9978C110.231 17.3573 109.91 16.6847 109.622 16.0122C109.302 15.3397 108.982 14.6672 108.693 14.0907C108.405 13.4822 108.117 12.9698 107.925 12.5215C107.701 12.0731 107.541 11.7529 107.412 11.5607C107.252 13.226 107.092 15.0194 106.996 16.9409C106.9 18.8625 106.804 20.9121 106.74 23.0578H105.395C105.523 20.5598 105.651 18.1259 105.811 15.8521C105.971 13.5463 106.131 11.3685 106.388 9.25488H107.573C107.957 9.92741 108.405 10.696 108.854 11.5607C109.302 12.4254 109.75 13.3221 110.199 14.2828C110.647 15.2116 111.063 16.1403 111.48 17.069C111.896 17.9978 112.28 18.7984 112.569 19.535C112.889 18.7984 113.241 17.9978 113.657 17.069C114.074 16.1403 114.522 15.2436 114.938 14.2828C115.355 13.3221 115.835 12.4574 116.283 11.5607C116.732 10.696 117.148 9.92741 117.564 9.25488H118.685C118.909 11.3685 119.102 13.5463 119.262 15.8521C119.422 18.1579 119.55 20.5598 119.678 23.0578H118.301C118.205 20.9121 118.141 18.8625 118.045 16.9409C117.949 15.0194 117.821 13.194 117.628 11.5607C117.532 11.7529 117.372 12.0731 117.116 12.5215C116.892 12.9698 116.636 13.5142 116.347 14.0907C116.059 14.6992 115.739 15.3077 115.419 16.0122C115.098 16.6847 114.778 17.3573 114.49 17.9978C114.17 18.6383 113.914 19.2147 113.657 19.7912C113.401 20.3356 113.209 20.784 113.081 21.1042H111.96Z" fill="black"/>
<path d="M126.467 9.19141C128.421 9.19141 129.862 9.57571 130.823 10.3123C131.784 11.0489 132.264 12.1057 132.264 13.4828C132.264 14.2834 132.104 14.956 131.848 15.4684C131.591 16.0128 131.175 16.4611 130.663 16.8134C130.15 17.1337 129.51 17.3899 128.773 17.55C128.037 17.7101 127.172 17.7742 126.243 17.7742H124.354V23.1224H123.009V9.57571C123.489 9.44761 124.066 9.35153 124.706 9.28748C125.315 9.22343 125.923 9.19141 126.467 9.19141ZM126.532 10.3763C126.019 10.3763 125.603 10.4084 125.25 10.4084C124.898 10.4404 124.61 10.4724 124.354 10.5044V16.5892H126.051C126.788 16.5892 127.46 16.5572 128.037 16.4611C128.613 16.3651 129.126 16.2049 129.542 15.9808C129.958 15.7566 130.278 15.4043 130.503 15.02C130.727 14.6037 130.823 14.0913 130.823 13.4508C130.823 12.8423 130.695 12.3299 130.439 11.9456C130.182 11.5613 129.862 11.241 129.446 11.0168C129.062 10.7927 128.581 10.6325 128.069 10.5365C127.588 10.4084 127.076 10.3763 126.532 10.3763Z" fill="black"/>
<path d="M139.726 23.4102C138.797 23.4102 138.028 23.2501 137.388 22.9939C136.747 22.7377 136.235 22.3214 135.819 21.841C135.434 21.3286 135.146 20.7842 134.954 20.1116C134.762 19.4391 134.698 18.7666 134.698 17.998V9.28711H136.043V17.7738C136.043 18.5104 136.139 19.1829 136.299 19.7273C136.491 20.2718 136.747 20.7201 137.036 21.0724C137.356 21.4247 137.74 21.7129 138.189 21.873C138.637 22.0332 139.149 22.1292 139.694 22.1292C140.27 22.1292 140.751 22.0332 141.199 21.873C141.647 21.7129 142.032 21.4247 142.352 21.0724C142.672 20.7201 142.928 20.2718 143.088 19.7273C143.281 19.1829 143.345 18.5104 143.345 17.7738V9.28711H144.69V17.966C144.69 18.7025 144.594 19.4391 144.433 20.0796C144.241 20.7522 143.985 21.2966 143.569 21.809C143.184 22.3214 142.64 22.6737 142 22.9619C141.455 23.2501 140.654 23.4102 139.726 23.4102Z" fill="black"/>
<path d="M151.287 22.2257C152.376 22.2257 153.209 22.0335 153.785 21.6492C154.394 21.2649 154.682 20.6244 154.682 19.7597C154.682 19.2473 154.586 18.831 154.394 18.4787C154.202 18.1584 153.945 17.8382 153.625 17.614C153.305 17.3898 152.953 17.1657 152.536 17.0055C152.12 16.8454 151.704 16.6853 151.255 16.4931C150.679 16.269 150.166 16.0448 149.718 15.8206C149.27 15.5964 148.885 15.3082 148.565 15.02C148.245 14.7317 147.989 14.3795 147.829 13.9952C147.668 13.6109 147.572 13.1625 147.572 12.6501C147.572 11.4652 147.957 10.5685 148.725 9.95998C149.526 9.3515 150.615 9.03125 151.992 9.03125C152.376 9.03125 152.728 9.06328 153.081 9.12733C153.433 9.19138 153.753 9.25543 154.073 9.31948C154.394 9.41555 154.682 9.51163 154.938 9.6077C155.194 9.70378 155.419 9.83188 155.579 9.92796L155.098 11.0488C154.714 10.7926 154.234 10.5685 153.689 10.4083C153.145 10.2482 152.536 10.1842 151.896 10.1842C151.447 10.1842 151.063 10.2162 150.679 10.3123C150.295 10.4083 150.006 10.5364 149.75 10.7286C149.494 10.9207 149.27 11.1769 149.11 11.4652C148.949 11.7534 148.885 12.1057 148.885 12.522C148.885 12.9383 148.981 13.3226 149.11 13.6109C149.27 13.8991 149.494 14.1553 149.782 14.3474C150.07 14.5716 150.423 14.7317 150.775 14.9239C151.159 15.084 151.576 15.2762 152.024 15.4683C152.568 15.6925 153.081 15.9167 153.561 16.1409C154.041 16.365 154.49 16.6533 154.842 16.9415C155.194 17.2617 155.483 17.614 155.707 18.0624C155.931 18.5107 156.027 19.0552 156.027 19.6636C156.027 20.9126 155.579 21.8414 154.714 22.4819C153.849 23.1224 152.664 23.4106 151.159 23.4106C150.647 23.4106 150.134 23.3786 149.686 23.3145C149.238 23.2505 148.853 23.1544 148.533 23.0583C148.181 22.9622 147.893 22.8341 147.668 22.7381C147.444 22.642 147.252 22.5459 147.092 22.4819L147.54 21.3289C147.668 21.425 147.861 21.4891 148.085 21.5851C148.309 21.6812 148.597 21.7773 148.885 21.9054C149.206 22.0015 149.526 22.0976 149.942 22.1616C150.391 22.1936 150.807 22.2257 151.287 22.2257Z" fill="black"/>
<path d="M81.344 28.3105C81.7283 29.4955 82.1446 30.6164 82.4969 31.6732C82.8812 32.73 83.2334 33.7548 83.5857 34.7476C83.938 35.7404 84.3223 36.7012 84.6746 37.6619C85.0589 38.6227 85.4432 39.5834 85.8915 40.5442C86.3079 39.5834 86.6922 38.6547 87.0765 37.6939C87.4608 36.7332 87.8131 35.7724 88.1974 34.7796C88.5817 33.7869 88.9339 32.7621 89.2862 31.7052C89.6705 30.6484 90.0228 29.5275 90.4391 28.3426H91.8803C91.2718 30.104 90.7273 31.6091 90.247 32.9222C89.7666 34.2352 89.3182 35.4202 88.9019 36.477C88.4856 37.5338 88.1013 38.5266 87.717 39.4233C87.3327 40.32 86.9484 41.2167 86.532 42.1455H85.251C84.8667 41.2167 84.4504 40.32 84.0661 39.4233C83.6818 38.5266 83.2655 37.5338 82.8491 36.477C82.4328 35.4202 81.9845 34.2352 81.5041 32.9222C81.0237 31.6091 80.4472 30.104 79.8708 28.3426H81.344V28.3105Z" fill="black"/>
<path d="M95.2107 28.3105H93.8656V42.1134H95.2107V28.3105Z" fill="black"/>
<path d="M107.989 32.4412C107.989 33.498 107.733 34.2987 107.188 34.9071C106.644 35.5156 105.907 35.932 105.043 36.1882C105.267 36.4444 105.523 36.8287 105.875 37.277C106.196 37.7254 106.548 38.2057 106.932 38.7502C107.284 39.2946 107.637 39.839 107.989 40.4475C108.341 41.024 108.629 41.6004 108.854 42.1128H107.38C107.124 41.6004 106.804 41.056 106.484 40.5436C106.163 40.0312 105.811 39.4868 105.491 39.0064C105.171 38.494 104.818 38.0456 104.498 37.6293C104.178 37.213 103.89 36.8287 103.666 36.5084C103.249 36.5404 102.801 36.5725 102.385 36.5725H100.143V42.1449H98.7657V28.5982C99.246 28.4701 99.8225 28.374 100.463 28.3099C101.103 28.2459 101.68 28.2139 102.256 28.2139C104.146 28.2139 105.587 28.5661 106.548 29.3027C107.541 30.0393 107.989 31.0641 107.989 32.4412ZM102.417 29.3668C101.904 29.3668 101.488 29.3988 101.071 29.3988C100.687 29.4308 100.399 29.4629 100.143 29.4949V35.3555H102.032C102.673 35.3555 103.249 35.3235 103.794 35.2594C104.37 35.1954 104.85 35.0673 105.267 34.8751C105.683 34.683 106.003 34.3627 106.26 33.9784C106.484 33.5941 106.612 33.0497 106.612 32.4092C106.612 31.8007 106.484 31.2883 106.26 30.904C106.035 30.5197 105.715 30.1994 105.331 29.9753C104.947 29.7511 104.498 29.591 103.986 29.4949C103.473 29.3988 102.961 29.3668 102.417 29.3668Z" fill="black"/>
<path d="M119.87 28.3105V29.4635H115.451V42.1134H114.106V29.4635H109.686V28.3105H119.87Z" fill="black"/>
<path d="M126.98 42.4017C126.051 42.4017 125.282 42.2415 124.642 41.9853C124.001 41.7291 123.489 41.3128 123.073 40.8324C122.688 40.32 122.4 39.7756 122.208 39.1031C122.016 38.4305 121.952 37.758 121.952 36.9894V28.3105H123.297V36.7972C123.297 37.5338 123.393 38.2064 123.553 38.7508C123.745 39.2952 124.001 39.7436 124.29 40.0958C124.61 40.4481 124.994 40.7363 125.443 40.8965C125.891 41.0566 126.403 41.1527 126.948 41.1527C127.524 41.1527 128.005 41.0566 128.453 40.8965C128.901 40.7363 129.286 40.4481 129.606 40.0958C129.926 39.7436 130.182 39.2952 130.342 38.7508C130.535 38.2064 130.599 37.5338 130.599 36.7972V28.3105H131.944V36.9894C131.944 37.726 131.848 38.4626 131.687 39.1031C131.495 39.7756 131.239 40.32 130.823 40.8324C130.438 41.3448 129.894 41.6971 129.254 41.9853C128.709 42.2736 127.908 42.4017 126.98 42.4017Z" fill="black"/>
<path d="M144.851 42.1132C144.594 41.4407 144.338 40.7682 144.114 40.1597C143.89 39.5192 143.666 38.9427 143.474 38.3343H136.716C136.492 38.9427 136.268 39.5512 136.044 40.1597C135.82 40.8002 135.595 41.4407 135.339 42.1132H133.962C134.475 40.6721 134.987 39.327 135.435 38.078C135.884 36.8291 136.364 35.6762 136.812 34.5553C137.261 33.4664 137.709 32.3776 138.157 31.3527C138.606 30.3279 139.054 29.3031 139.567 28.2783H140.751C141.232 29.3031 141.712 30.3279 142.161 31.3527C142.609 32.3776 143.025 33.4344 143.506 34.5553C143.954 35.6441 144.402 36.8291 144.883 38.078C145.363 39.327 145.875 40.6721 146.388 42.1132H144.851ZM140.111 29.8796C139.599 31.0325 139.118 32.1854 138.638 33.3703C138.157 34.5553 137.677 35.8363 137.165 37.1813H143.057C142.545 35.8043 142.064 34.5232 141.584 33.3383C141.104 32.1534 140.591 31.0325 140.111 29.8796Z" fill="black"/>
<path d="M156.155 40.9285V42.1134H148.309V28.3105H149.654V40.9285H156.155Z" fill="black"/>
<path d="M79.8708 48.3585V61.5529H82.0165V55.7564H88.0052V53.8028H82.0165V50.2801H88.8699V48.3585H79.8708ZM90.7273 48.3585V61.5529H92.9371V48.3906L90.7273 48.3585ZM101.552 48.0703C97.6448 48.0703 95.2429 50.6644 95.2429 55.0198C95.2429 59.3752 97.6448 61.9693 101.552 61.9693C105.459 61.9693 107.861 59.3432 107.861 55.0198C107.893 50.6964 105.459 48.0703 101.552 48.0703ZM101.552 49.9598C104.082 49.9598 105.651 51.7852 105.651 54.9878C105.651 58.2223 104.082 60.0157 101.552 60.0157C99.0219 60.0157 97.4527 58.1583 97.4527 54.9878C97.4527 51.7852 99.0219 49.9598 101.552 49.9598ZM121.279 52.5218C121.055 49.7676 119.038 48.0703 115.803 48.0703C111.896 48.0703 109.558 50.6323 109.558 55.0198C109.558 59.4073 111.864 61.9693 115.643 61.9693C118.942 61.9693 121.215 59.8556 121.311 56.8773H119.166C119.07 58.7027 117.532 60.0798 115.707 59.9837C113.305 59.9837 111.768 58.0942 111.768 54.9237C111.768 51.7532 113.209 49.9918 115.739 49.9918C117.629 49.9918 118.846 50.8885 119.07 52.4578L121.279 52.5218ZM123.457 48.4226V61.5529H125.635V56.1086H128.933C130.663 56.1086 130.951 56.8452 131.015 58.2223L131.079 59.7916C131.079 60.4 131.175 60.9765 131.399 61.5209H133.865V61.1686C133.353 60.9124 133.353 60.4321 133.321 59.6635L133.225 57.774C133.161 56.3649 132.905 55.5322 131.656 55.1479C132.873 54.6355 133.641 53.4185 133.545 52.0735C133.705 50.184 132.296 48.5507 130.439 48.3906C130.247 48.3906 130.022 48.3906 129.83 48.3906H129.126L123.457 48.4226ZM125.635 50.2801H128.837C130.471 50.2801 131.367 50.7604 131.367 52.2976C131.367 53.8028 130.567 54.3473 128.773 54.3473H125.635V50.248V50.2801ZM135.979 48.4226V56.7171C135.979 60.1759 137.74 61.9372 141.199 61.9372C144.498 61.9372 146.419 60.1118 146.419 56.7171V48.3906H144.21V56.6211C144.21 58.8628 143.281 59.9517 141.199 59.9517C139.118 59.9517 138.189 58.8628 138.189 56.6211V48.3906L135.979 48.4226ZM148.533 48.4226V50.2801H155.771L148.085 59.7275V61.5529H158.301V59.5994H150.743L158.333 50.2801V48.3585L148.533 48.4226Z" fill="black"/>
</svg>
